<svg id="Layer_1" data-name="Layer 1" xmlns="http://www.w3.org/2000/svg" viewBox="0 0 38.18 30.15"><defs><style>.cls-1{fill:none;stroke:#342f3d;stroke-miterlimit:10;stroke-width:1.75px;}</style></defs><title>cinnroll</title><path class="cls-1" d="M4.22,12.9s-.88,9.75-.17,12.22c2.35,8.08,16,8.08,19.32,8.08,0,0,14.41.51,16.53-7.47.67-2.43,0-12.74,0-12.74h-.76" transform="translate(-2.9 -3.93)"/><path class="cls-1" d="M39.9,12.55c0,2.07-.28,3.55-3.33,4.95-.1,0-.67.45-.6,1.84.17,3.18.54,5.9-.81,6.74a1.73,1.73,0,0,1-2.33-.72A1.79,1.79,0,0,1,32.7,25c-.52-1.35-.31-2.49-.4-4.23v-.88a1.06,1.06,0,0,0-2.12-.1c-.46,3,.88,5.18-1.24,5.51a1.53,1.53,0,0,1-1.61-1c-.49-1.19-.07-2.38-.76-3.47-.09-.14-.56-.68-2.08-.58-.81.06-1.62.08-2.44.06-9.84,0-17.83-3.5-17.83-7.79s8-7.75,17.83-7.75S39.9,8.27,39.9,12.55Z" transform="translate(-2.9 -3.93)"/><ellipse class="cls-1" cx="19.6" cy="7.01" rx="13.53" ry="5.06"/><ellipse class="cls-1" cx="19.6" cy="4.86" rx="10.41" ry="3.53"/><ellipse class="cls-1" cx="19.6" cy="3.53" rx="5.97" ry="2.36"/></svg>