<svg id="Layer_1" data-name="Layer 1" xmlns="http://www.w3.org/2000/svg" viewBox="0 0 345.76 46.28"><defs><style>.cls-1{fill:#332e3c;}.cls-2{fill:none;stroke:#332e3c;stroke-miterlimit:10;stroke-width:2.75px;}</style></defs><title>synonymlogo_2</title><path class="cls-1" d="M251.29,36.06V24.44c0-7,2.24-10.86,8.16-12.06l.61,1.07c-1.9,1.14-1.48,5.17-1.48,9.92V24c3.53-.22,10.2-2.5,10.2-7.09,0-4.15-2.58-6.38-7.09-6.38A12.87,12.87,0,0,0,249.36,19c-.17-.07-1-2.47-2.1-1.65,2.55-5.46,5.42-9,15.83-9,6.65,0,13,2.28,13,8.09,0,4.94-3.6,7.59-9.27,8.24h1.7c4.56,0,6.8,2.24,6.8,5.85,0,2.35.6,2.89,1.86,2.89,1.59,0,3-2.39,3.95-7.63l1.36.38c-.68,5.12-2.85,10.44-7.89,10.44-4.64,0-6.76-2.17-6.76-6.49,0-2.73-6.13-4.48-9.28-4.64V36.06Z"/><path class="cls-1" d="M297.37,26.58c0,6.07-4,10-9.8,10s-9.84-3.94-9.84-10,4.06-10.07,9.83-10.07S297.37,20.54,297.37,26.58Zm-7.49,0c0-5.57-.67-7.87-2.31-7.87s-2.35,2.39-2.35,7.87.72,7.81,2.35,7.81,2.31-2.24,2.31-7.81Z"/><path class="cls-1" d="M86.1,26.6c0,6.07-4,10-9.79,10s-9.85-3.95-9.85-10,4.07-10.07,9.83-10.07S86.1,20.56,86.1,26.6Zm-7.48,0c0-5.57-.68-7.87-2.31-7.87S74,21.13,74,26.6s.72,7.82,2.36,7.82,2.31-2.25,2.31-7.82Z"/><path class="cls-1" d="M314.27,26.15c-.93,5.36-3.54,10.49-8.35,10.49-3.61,0-5.81-1.64-5.85-6.2V8.34h2c3.77,0,5.09,1.33,5.09,4.44V31.33c0,1.22.46,2.17,1.4,2.17,1.14,0,2.79-1.67,4.3-7.67Z"/><path class="cls-1" d="M325.92,26.15c-.93,5.36-3.53,10.49-8.35,10.49-3.61,0-5.81-1.64-5.85-6.2V8.34h2c3.71,0,5.09,1.33,5.09,4.44V31.33c0,1.22.46,2.17,1.4,2.17,1.14,0,2.79-1.67,4.3-7.67Z"/><path class="cls-1" d="M321.82,30.09c0-2.88,1.63-4.55,3.61-4.64a56.38,56.38,0,0,0,1.78-6.38c.54-2.28,1.52-2.78,3.65-2.78h4.25c1.45,5.88,4.64,8.47,4.64,13.25,0,4.25-3.49,7.15-9.76,7.15S321.78,32.87,321.82,30.09ZM327.59,26a3.5,3.5,0,0,1,1.75,3.21A3.62,3.62,0,0,1,326,33h-.33a1.9,1.9,0,0,1-.71-.08,3.93,3.93,0,0,0,3.34,1.59c2.28,0,4-1.21,4-4.36,0-3.38-1.85-6-2.73-11.4-.44,1.7-1,4.51-2,7.17Z"/><path class="cls-2" d="M186.11,15.16s-1.2,13.43-.23,16.84c3.24,11.13,22.1,11.13,26.61,11.13,0,0,19.85.7,22.77-10.3.93-3.34,0-17.55,0-17.55h-1"/><path class="cls-2" d="M235.26,14.68c0,2.86-.39,4.9-4.58,6.82-.14.06-.93.62-.83,2.54.24,4.38.75,8.12-1.12,9.27a2.36,2.36,0,0,1-3.2-1,1.78,1.78,0,0,1-.18-.43c-.72-1.86-.43-3.44-.55-5.83V24.85a1.46,1.46,0,0,0-2.92-.13c-.64,4.06,1.21,7.12-1.71,7.58A2.11,2.11,0,0,1,218,30.91c-.68-1.64-.11-3.28-1.06-4.78-.12-.2-.76-.93-2.86-.8a29,29,0,0,1-3.36.08c-13.56,0-24.57-4.82-24.57-10.73S197.12,4,210.68,4,235.26,8.79,235.26,14.68Z"/><ellipse class="cls-2" cx="211.3" cy="12.46" rx="18.64" ry="6.97"/><ellipse class="cls-2" cx="211.3" cy="9.5" rx="14.34" ry="4.86"/><ellipse class="cls-2" cx="211.3" cy="7.67" rx="8.23" ry="3.25"/><path class="cls-1" d="M19.22,29.11c0,5-3.95,7.64-10.37,7.64C3.42,36.75,0,34,0,30.25c0-2.35,1.29-4.52,3.8-4.52A3.46,3.46,0,0,1,7.44,29a.86.86,0,0,1,0,.16,3.28,3.28,0,0,1-3.26,3.27H4a2.33,2.33,0,0,1-1.78-.68c.53,1.79,2.78,2.85,5.28,2.85,2.88,0,5-1,5-3.84,0-6-11.35-6.07-11.35-14.77,0-4.6,3.57-7.59,9.28-7.59s8.34,3,8.34,6a3.71,3.71,0,0,1-3.51,3.9h-.2a3,3,0,0,1-3.22-2.74,2,2,0,0,1,0-.35,2.77,2.77,0,0,1,2.58-3h.34a3,3,0,0,1,1.36.31,5.42,5.42,0,0,0-4.47-2.19c-2.69,0-4.25,1.75-4.25,3.77C7.41,19.91,19.22,20.41,19.22,29.11Z"/><path class="cls-1" d="M28.83,35.68h-.27c-3.71,0-6.8-1.63-6.8-7.37V17.18h2c3.71,0,5.1,1.67,5.1,4.79v8.7c0,2,.38,3.45,1.78,3.45s1.85-1.18,1.85-3.41V17.18h7.14v20c0,5.56-4.63,8.08-9.57,8.08-3.95,0-7.52-.92-7.52-4.22s4.06-4.44,6.34-4.77Zm3.71-.26-.46.22c-2.31,1.18-3.53,2.25-3.53,5.17,0,1.59.6,2.78,2,2.78s2-1.14,2-3.15Z"/><path class="cls-1" d="M45.39,17.18c3.59,0,4.93.27,5,3.05a6.46,6.46,0,0,1,5.85-3.61c4.18,0,5.25,3.37,5.25,5.92,0,3.11-.35,6.12-.35,8.28,0,1.71.53,2.78,1.75,2.78,1.59,0,3.19-3.37,4.22-7.67l1.4.38c-1.22,5.57-3.19,10.45-8.78,10.45-4.1,0-5.8-2.63-5.8-5.89,0-2.85.22-4.75.22-7.3,0-1.36-.3-3-1.51-3s-2.17,1.29-2.25,4.64v11H43.36v-19Z"/><path class="cls-1" d="M90.35,17.18c3.61,0,4.94.27,5.05,3.05a6.46,6.46,0,0,1,5.85-3.61c4.18,0,5.24,3.37,5.24,5.92,0,3.11-.34,6.12-.34,8.28,0,1.71.53,2.78,1.74,2.78,1.6,0,3.2-3.37,4.23-7.67l1.4.38c-1.22,5.57-3.2,10.45-8.77,10.45-4.11,0-5.82-2.63-5.82-5.89,0-2.85.24-4.75.24-7.3,0-1.36-.31-3-1.52-3s-2.17,1.29-2.25,4.64v11H88.34v-19Z"/><path class="cls-1" d="M118.77,35.68h-.27c-3.71,0-6.79-1.63-6.79-7.37V17.18h2c3.71,0,5.08,1.67,5.08,4.79v8.7c0,2,.38,3.45,1.79,3.45s1.86-1.18,1.86-3.41V17.18h7.14v20c0,5.56-4.64,8.08-9.57,8.08-3.94,0-7.52-.92-7.52-4.22s4.07-4.44,6.34-4.77Zm3.71-.26-.46.22c-2.32,1.18-3.53,2.25-3.53,5.17,0,1.59.61,2.78,2,2.78s2-1.14,2-3.15Z"/><path class="cls-1" d="M153.71,20.53c-1.18,0-2.17,1.29-2.25,4.64v11h-7.33V23.57c0-1.37-.3-3-1.52-3s-2.24,1.4-2.24,5.2V36.17h-7.06v-19h2c3.54,0,4.86.42,5,3.05a6.57,6.57,0,0,1,5.89-3.61,4.79,4.79,0,0,1,5,4,6.48,6.48,0,0,1,6.08-4c4.17,0,5.24,3.37,5.24,5.92,0,3.11-.35,6.12-.35,8.28,0,1.71.53,2.78,1.56,2.78,1.29,0,2.14-3,2.38-5l1.61.92c-1,5.39-2.78,7.22-7,7.22s-5.8-2.63-5.8-5.89c0-2.85.22-4.75.22-7.3C155.21,22.2,154.92,20.53,153.71,20.53Z"/><path class="cls-1" d="M236.22,12.66c6.48,20.83,9.4,7.54,11,4.69,0,0,2.9-1.9,2.1,1.65-.09.27,0-.2-2.1,5.46-2.31,5.12-7.2,5.39-8.72,2.27-2.17-4.24-1.21-3.12-3.46-7.77"/><path class="cls-1" d="M187.31,19.17c-2.25,8.24-10.92,19.13-15.5,9.92-2.19-5.26-3.3-4-4.22,1.35-.31-.08-2.39,2.72-3.27,3,2.18-2.21,1.59-3.7,2.1-8.4.81-4.42,4.25-6,7.45.41,3.19,8,11.13-3.63,10.87-11.09"/></svg>