<svg id="Layer_1" data-name="Layer 1" xmlns="http://www.w3.org/2000/svg" viewBox="0 0 345.76 46.28"><defs><style>.cls-1{fill:#332e3c;}.cls-2{fill:none;}.cls-2,.cls-3{stroke:#332e3c;stroke-miterlimit:10;stroke-width:3px;}.cls-3{fill:#fff;}</style></defs><title>synonymlogo</title><path class="cls-1" d="M257.9,60.44V47.91c0-7.57,2.42-11.71,8.8-13l.66,1.15c-2.05,1.23-1.6,5.57-1.6,10.69v.73c3.81-.24,11-2.7,11-7.65,0-4.47-2.78-6.88-7.65-6.88-6.35,0-11.87,4.76-12.85,9.84-.19-.07-1.71-1.81-2.94-.93,1.88-5.91,6.08-11.29,17.3-11.29,7.17,0,14,2.46,14,8.72,0,5.33-3.88,8.19-10,8.89l1.84,0c4.91,0,7.33,2.41,7.33,6.3,0,2.54.65,3.12,2,3.12,1.72,0,3.24-2.58,4.26-8.23l1.47.41c-.73,5.52-3.07,11.26-8.51,11.26-5,0-7.29-2.34-7.29-7,0-2.94-6.61-4.83-10-5V60.44Z" transform="translate(-7.46 -24)"/><path class="cls-1" d="M307.58,50.21c0,6.55-4.34,10.8-10.56,10.8s-10.61-4.25-10.61-10.8S290.79,39.36,297,39.36,307.58,43.7,307.58,50.21Zm-8.07,0c0-6-.73-8.48-2.49-8.48s-2.54,2.58-2.54,8.48.78,8.43,2.54,8.43S299.51,56.22,299.51,50.21Z" transform="translate(-7.46 -24)"/><path class="cls-1" d="M325.8,49.75c-1,5.78-3.81,11.31-9,11.31-3.89,0-6.27-1.77-6.31-6.68V30.55h2.17c4.06,0,5.49,1.44,5.49,4.79v20c0,1.31.49,2.34,1.51,2.34,1.23,0,3-1.8,4.63-8.27Z" transform="translate(-7.46 -24)"/><path class="cls-1" d="M338.36,49.75c-1,5.78-3.8,11.31-9,11.31-3.89,0-6.27-1.77-6.31-6.68V30.55h2.17c4,0,5.49,1.44,5.49,4.79v20c0,1.31.49,2.34,1.51,2.34,1.23,0,3-1.8,4.63-8.27Z" transform="translate(-7.46 -24)"/><path class="cls-1" d="M333.94,54c0-3.11,1.76-4.91,3.89-5a59.74,59.74,0,0,0,1.92-6.88c.58-2.46,1.64-3,3.94-3h4.58c1.56,6.34,5,9.13,5,14.29,0,4.58-3.76,7.7-10.52,7.7C336.11,61.06,333.9,57,333.94,54Zm6.22-4.46A3.78,3.78,0,0,1,342.05,53a3.92,3.92,0,0,1-4,4.18,1.94,1.94,0,0,1-.77-.09,4.22,4.22,0,0,0,3.6,1.72c2.46,0,4.34-1.31,4.34-4.7,0-3.65-2-6.51-2.95-12.29C341.8,43.65,341.15,46.68,340.16,49.55Z" transform="translate(-7.46 -24)"/><path class="cls-1" d="M139.91,45.4c-.08-3.64-1.15-5-2.42-5s-1.64,1.8-1.64,3.27c0,2.75.25,8.5-.24,12.19-1.14,8.47-1.29-14.41-2-19.68A7,7,0,0,1,139.91,40" transform="translate(-7.46 -24)"/><path class="cls-2" d="M81.13,37.52S79.83,52,80.88,55.67c3.49,12,23.82,12,28.69,12,0,0,21.4.76,24.55-11.1,1-3.6,0-18.92,0-18.92H133" transform="translate(-7.46 -24)"/><path class="cls-2" d="M134.12,37c0,3.08-.42,5.28-4.94,7.35-.15.07-1,.67-.9,2.74.26,4.72.81,8.76-1.2,10a2.56,2.56,0,0,1-3.65-1.54c-.77-2-.46-3.7-.59-6.28,0-.68,0-.68,0-1.31a1.58,1.58,0,0,0-3.15-.14C119,52.2,121,55.5,117.85,56a2.29,2.29,0,0,1-2.39-1.5c-.73-1.77-.11-3.54-1.14-5.16-.13-.21-.82-1-3.08-.86a32.36,32.36,0,0,1-3.62.09C93,48.53,81.13,43.37,81.13,37S93,25.5,107.62,25.5,134.12,30.65,134.12,37Z" transform="translate(-7.46 -24)"/><ellipse class="cls-2" cx="100.82" cy="10.61" rx="20.1" ry="7.51"/><ellipse class="cls-2" cx="100.82" cy="7.42" rx="15.46" ry="5.24"/><ellipse class="cls-2" cx="100.82" cy="5.44" rx="8.87" ry="3.5"/><ellipse class="cls-3" cx="100.82" cy="3.75" rx="3.97" ry="1.57"/><path class="cls-1" d="M28.18,52.92c0,5.44-4.26,8.23-11.18,8.23-5.85,0-9.54-2.95-9.54-7,0-2.54,1.39-4.88,4.1-4.88A3.75,3.75,0,0,1,15.49,53a3.52,3.52,0,0,1-3.73,3.52,2.51,2.51,0,0,1-1.92-.73c.57,1.92,3,3.07,5.69,3.07,3.11,0,5.4-1.11,5.4-4.14,0-6.43-12.24-6.55-12.24-15.93,0-4.95,3.85-8.18,10-8.18s9,3.23,9,6.51a4,4,0,0,1-4,4.21A3.23,3.23,0,0,1,20.2,38a3,3,0,0,1,3.15-3.2,3.19,3.19,0,0,1,1.47.33A5.85,5.85,0,0,0,20,32.77c-2.9,0-4.58,1.89-4.58,4.06C15.45,43,28.18,43.54,28.18,52.92Z" transform="translate(-7.46 -24)"/><path class="cls-1" d="M38.54,60h-.29c-4,0-7.33-1.76-7.33-7.94v-12h2.17c4,0,5.49,1.8,5.49,5.16V54.6c0,2.21.41,3.72,1.92,3.72s2-1.27,2-3.68V40.06h7.7v21.5c0,6-5,8.72-10.32,8.72-4.26,0-8.11-1-8.11-4.55s4.38-4.79,6.84-5.15Zm4-.28-.49.24c-2.5,1.27-3.81,2.42-3.81,5.57,0,1.72.65,3,2.17,3s2.13-1.23,2.13-3.4Z" transform="translate(-7.46 -24)"/><path class="cls-1" d="M56.39,40.06c3.88,0,5.32.29,5.44,3.28a7,7,0,0,1,6.31-3.89c4.5,0,5.65,3.64,5.65,6.39,0,3.35-.37,6.59-.37,8.92,0,1.84.57,3,1.88,3,1.72,0,3.44-3.64,4.55-8.27l1.51.41c-1.31,6-3.44,11.26-9.46,11.26-4.42,0-6.26-2.83-6.26-6.35,0-3.07.24-5.12.24-7.86,0-1.47-.32-3.27-1.63-3.27s-2.34,1.39-2.42,5V60.53H54.21V40.06Z" transform="translate(-7.46 -24)"/><path class="cls-1" d="M142.08,40.06c3.89,0,5.32.29,5.44,3.28a7,7,0,0,1,6.31-3.89c4.5,0,5.65,3.64,5.65,6.39,0,3.35-.37,6.59-.37,8.92,0,1.84.57,3,1.88,3,1.72,0,3.44-3.64,4.55-8.27l1.51.41c-1.31,6-3.44,11.26-9.45,11.26-4.43,0-6.27-2.83-6.27-6.35,0-3.07.25-5.12.25-7.86,0-1.47-.33-3.27-1.64-3.27s-2.33,1.39-2.42,5V60.53h-7.61V40.06Z" transform="translate(-7.46 -24)"/><path class="cls-1" d="M172.71,60h-.29c-4,0-7.32-1.76-7.32-7.94v-12h2.17c4,0,5.48,1.8,5.48,5.16V54.6c0,2.21.41,3.72,1.93,3.72s2-1.27,2-3.68V40.06h7.7v21.5c0,6-5,8.72-10.32,8.72-4.25,0-8.1-1-8.1-4.55s4.38-4.79,6.83-5.15Zm4-.28-.49.24c-2.5,1.27-3.81,2.42-3.81,5.57,0,1.72.66,3,2.17,3s2.13-1.23,2.13-3.4Z" transform="translate(-7.46 -24)"/><path class="cls-1" d="M210.38,43.67c-1.27,0-2.34,1.39-2.42,5V60.53h-7.9V46.94c0-1.47-.33-3.27-1.64-3.27S196,45.18,196,49.27V60.53h-7.61V40.06h2.17c3.81,0,5.24.45,5.4,3.28a7.09,7.09,0,0,1,6.35-3.89,5.16,5.16,0,0,1,5.41,4.3,7,7,0,0,1,6.55-4.3c4.5,0,5.65,3.64,5.65,6.39,0,3.35-.37,6.59-.37,8.92,0,1.84.57,3,1.68,3,1.39,0,2.08-2.58,2.62-4.75l1.68.37c-1.11,5.81-3,7.78-7.5,7.78s-6.26-2.83-6.26-6.35c0-3.07.24-5.12.24-7.86C212,45.47,211.69,43.67,210.38,43.67Z" transform="translate(-7.46 -24)"/><path class="cls-1" d="M223.85,53s.54-1.91,2.15-7.2c1.63-6.9,9.77-7.09,11.3-3.24,1.29,3.24.52,1.36,2.64,6.42,5.36,12.81,15.35-11.83,15.52-11.69,0,0,4.15-1,2.19,2.07-1.78,2.84-3.68,13.26-4.93,16.52-3.8,9.93-15.43,9.11-18.32-5.22-1.3-6.43-4.8-6-6.31-2.93-1.29,2.6-3.29,8.55-3.29,8.55Z" transform="translate(-7.46 -24)"/></svg>